<svg width="400" height="387" viewBox="0 0 400 387" fill="none" xmlns="http://www.w3.org/2000/svg">
<g filter="url(#filter0_d_338_100)">
<path d="M229.81 104.441C207.912 118.643 180.43 115.51 162.758 100.748C160.112 98.5363 156.513 98.6261 153.721 100.68L112.469 131.182L98.1839 141.758C96.132 135.695 92.6785 130.295 88.2046 125.94L102.131 115.634C102.221 115.567 142.037 86.0975 142.138 86.0526C144.201 85.0198 145.569 82.5276 145.872 80.3272C146.242 77.6666 144.93 75.4438 144.212 72.974C137.216 49.4661 146.13 23.2302 167.782 9.17491C194.143 -7.91153 229.384 -0.446035 246.506 25.8572C263.651 52.1941 256.138 87.3773 229.81 104.441Z" fill="url(#paint0_linear_338_100)"/>
<path d="M226.29 84.0318C230.629 79.6535 233.881 74.2761 235.754 68.3711C235.754 68.3711 296.695 112.547 296.706 112.569C298.758 114.04 301.46 114.522 304.006 113.591C304.443 113.433 304.847 113.243 305.228 113.018C325.22 96.9982 354.351 96.6052 374.904 113.568C387.059 123.604 393.831 137.75 394.863 152.344C395.838 166.006 391.79 180.073 382.394 191.479C372.998 202.885 360.002 209.564 346.412 211.226C307.022 216.019 276.232 179.141 286.39 141.724C287.68 136.964 291.369 131.934 286.637 127.792L226.29 84.0318Z" fill="url(#paint1_linear_338_100)"/>
<path d="M279.315 378.06C259.457 374.019 245.329 361.939 237.873 346.189C231.414 332.515 230.36 316.293 236.247 301.059C245.744 276.462 270.334 262.205 295.316 264.719C296.19 264.809 297.693 263.529 298.276 263.002C299.498 261.868 300.328 260.397 300.709 258.792C300.72 258.769 300.72 258.758 300.72 258.724L322.641 190.008C327.855 192.691 333.764 194.207 340.032 194.207C340.391 194.207 340.738 194.207 341.097 194.196C341.097 194.196 318.47 265.146 318.459 265.157C317.674 267.649 318.089 270.467 319.827 272.668C320.118 273.049 320.443 273.375 320.791 273.689C341.434 287.093 351.413 312.633 344.797 336.803C344.282 338.667 343.676 340.531 342.959 342.372C337.072 357.606 325.399 368.877 311.428 374.647C301.471 378.767 290.348 380.092 279.315 378.06Z" fill="url(#paint2_linear_338_100)"/>
<path d="M329.559 321.378C329.559 343.18 311.899 360.85 290.135 360.85C271.241 360.85 255.465 347.558 251.608 329.798C251.025 327.081 250.711 324.264 250.711 321.378C250.711 317.696 251.216 314.137 252.146 310.758C256.788 294.121 272.038 281.907 290.135 281.907C311.899 281.907 329.559 299.577 329.559 321.378Z" fill="white"/>
<path d="M252.146 310.758L175.474 311.016C175.462 311.028 175.462 311.028 175.451 311.039C172.816 311.028 169.901 309.984 168.645 307.435C168.062 306.268 157.87 265.853 115.34 263.462C83.4505 261.665 56.2596 286.094 54.4656 317.887C52.7836 347.535 73.7515 373.21 102.299 378.093C104.441 378.464 106.616 378.711 108.836 378.834C133.605 380.226 158.879 366.317 168.253 334.423C168.858 333.267 169.721 332.234 170.876 331.459C172.94 330.079 176.259 330.067 176.259 330.067L251.608 329.798C251.025 327.081 250.711 324.263 250.711 321.378C250.711 317.696 251.216 314.137 252.146 310.758Z" fill="url(#paint3_linear_338_100)"/>
<path d="M116.472 360.726C94.6407 363.151 74.9848 347.401 72.5516 325.543C70.6118 308.064 80.2996 291.965 95.4144 284.983C99.2043 283.231 103.331 282.053 107.704 281.57C109.8 281.334 111.886 281.267 113.927 281.368C133.157 282.232 149.426 296.995 151.613 316.753C154.035 338.611 138.303 358.302 116.472 360.726Z" fill="white"/>
<path d="M72.3048 218.433C70.7126 214.134 69.6362 213.09 68.8849 212.562C67.2479 211.439 65.5436 211.136 63.6037 211.237C33.3854 212.775 7.11388 190.21 4.24342 159.731C1.86631 134.225 17.0708 109.448 42.3444 100.77C64.1307 93.2937 87.3411 99.8499 102.131 115.634L88.2045 125.94C92.6784 130.296 96.132 135.695 98.1839 141.758L112.469 131.182C113.187 132.765 113.837 134.404 114.409 136.077C123.054 161.348 112.884 188.515 91.3777 202.301C90.4022 202.93 89.7295 204.681 89.4492 205.748C88.9782 207.521 89.1128 209.43 89.864 211.103L113.927 281.368C107.86 281.065 101.368 282.232 95.4143 284.983L72.3048 218.433Z" fill="url(#paint4_linear_338_100)"/>
<path d="M235.753 68.3713C233.881 74.2764 230.629 79.6537 226.29 84.032C220.964 89.4206 214.023 93.3162 206.028 94.8654C184.892 98.9742 164.44 85.1434 160.348 63.9818C156.244 42.8202 170.058 22.3435 191.194 18.2459C212.33 14.1483 232.782 27.9678 236.875 49.1294C238.164 55.7754 237.682 62.354 235.753 68.3713Z" fill="white"/>
<path d="M378.121 156.06C378.121 176.772 361.639 193.634 341.097 194.195C340.738 194.207 340.39 194.207 340.032 194.207C333.764 194.207 327.855 192.691 322.641 190.008C310.34 183.688 301.931 170.856 301.931 156.06C301.931 134.999 318.985 117.924 340.032 117.924C361.067 117.924 378.121 134.999 378.121 156.06Z" fill="white"/>
<path d="M100.315 154.69C100.315 176.873 82.3518 194.847 60.1954 194.847C38.039 194.847 20.0762 176.873 20.0762 154.69C20.0762 132.507 38.039 114.522 60.1954 114.522C71.0942 114.522 80.9727 118.867 88.2049 125.94C92.6788 130.295 96.1323 135.695 98.1842 141.757C99.5634 145.81 100.315 150.166 100.315 154.69Z" fill="white"/>
<path d="M188.749 55.1465L186.473 63.7683H183.917L182.38 58.1551H182.358L180.889 63.7683H178.276L175.877 55.1465H178.49L180.272 61.9047H180.295L182.066 55.1465H184.062L185.845 61.9047H185.868L187.572 55.1465H188.749Z" fill="url(#paint5_linear_338_100)"/>
<path d="M198.392 62.0731C198.392 63.1508 197.832 63.7683 196.699 63.7683H191.553C190.431 63.7683 189.859 63.1396 189.859 62.0731V56.8417C189.859 55.7864 190.431 55.1465 191.553 55.1465H196.699C197.832 55.1465 198.392 55.7639 198.392 56.8417V62.0731ZM195.869 56.7182C195.869 56.4038 195.724 56.2579 195.41 56.2579H192.853C192.539 56.2579 192.393 56.4038 192.393 56.7182V62.2078C192.393 62.5446 192.539 62.6681 192.853 62.6681H195.41C195.724 62.6681 195.869 62.5222 195.869 62.2078V56.7182Z" fill="url(#paint6_linear_338_100)"/>
<path d="M208.136 62.0731C208.136 63.1508 207.575 63.7683 206.443 63.7683H201.296C200.175 63.7683 199.603 63.1396 199.603 62.0731V56.8417C199.603 55.7864 200.175 55.1465 201.296 55.1465H206.443C207.575 55.1465 208.136 55.7639 208.136 56.8417V62.0731ZM205.613 56.7182C205.613 56.4038 205.467 56.2579 205.153 56.2579H202.597C202.283 56.2579 202.137 56.4038 202.137 56.7182V62.2078C202.137 62.5446 202.283 62.6681 202.597 62.6681H205.153C205.467 62.6681 205.613 62.5222 205.613 62.2078V56.7182Z" fill="url(#paint7_linear_338_100)"/>
<path d="M217.88 62.0731C217.88 63.1508 217.319 63.7683 216.187 63.7683H209.347V55.1465H216.187C217.319 55.1465 217.88 55.7639 217.88 56.8417V62.0731ZM215.357 56.7182C215.357 56.4038 215.211 56.2579 214.897 56.2579L211.881 56.2691V62.6681H214.897C215.211 62.6681 215.357 62.5222 215.357 62.2078V56.7182Z" fill="url(#paint8_linear_338_100)"/>
<path d="M333.921 152.535H329.324V155.15H333.495V156.251H329.324V160.056H326.79V151.435H333.91V152.535H333.921Z" fill="url(#paint9_linear_338_100)"/>
<path d="M337.554 160.056H335.02V151.435H337.554V160.056Z" fill="url(#paint10_linear_338_100)"/>
<path d="M347.298 160.056H344.651L343.171 156.251H341.288V160.056H338.753V151.435H345.459C346.58 151.435 347.129 152.097 347.129 153.04V154.87C347.129 155.701 346.681 156.172 345.795 156.296L347.298 160.056ZM344.685 153.085C344.685 152.681 344.562 152.535 344.214 152.535H341.288V155.15H344.214C344.55 155.15 344.685 154.982 344.685 154.567V153.085Z" fill="url(#paint11_linear_338_100)"/>
<path d="M355.472 160.056H348.352V151.435H355.472V152.535H350.874V155.15H355.046V156.251H350.874V158.945H355.472V160.056Z" fill="url(#paint12_linear_338_100)"/>
<path d="M275.301 325.577H268.181V316.955H275.301V318.055H270.704V320.671H274.875V321.771H270.704V324.466H275.301V325.577Z" fill="url(#paint13_linear_338_100)"/>
<path d="M286.222 325.577H283.497L282.421 323.118H278.508L277.442 325.577H276.231L280.089 316.955H282.298L286.222 325.577ZM281.928 322.018L280.459 318.763L279.012 322.018H281.928Z" fill="url(#paint14_linear_338_100)"/>
<path d="M295.809 325.577H293.163L291.682 321.771H289.799V325.577H287.265V316.955H293.97C295.091 316.955 295.641 317.617 295.641 318.56V320.39C295.641 321.221 295.192 321.693 294.306 321.816L295.809 325.577ZM293.196 318.605C293.196 318.201 293.073 318.055 292.725 318.055H289.799V320.671H292.725C293.062 320.671 293.196 320.503 293.196 320.087V318.605Z" fill="url(#paint15_linear_338_100)"/>
<path d="M304.353 318.055H301.695V325.577H299.161V318.055H296.515V316.955H304.342V318.055H304.353Z" fill="url(#paint16_linear_338_100)"/>
<path d="M313.682 325.577H311.148V321.771H307.739V325.577H305.205V316.955H307.739V320.682H311.148V316.955H313.682V325.577Z" fill="url(#paint17_linear_338_100)"/>
<path d="M96.9397 328.406H94.3832V321.423C94.3832 321.019 94.1814 320.817 93.7665 320.828H92.0958C91.9276 320.828 91.7706 320.839 91.6137 320.873C91.4679 320.896 91.3782 320.974 91.3558 321.098C91.3334 321.221 91.3221 321.333 91.3221 321.423V328.406H88.7656V319.784H91.2324H92.0734H95.2802C96.3903 319.784 96.9397 320.525 96.9397 322.018V328.406ZM102.557 328.406H100.001V321.423C100.001 321.019 99.799 320.817 99.3841 320.828H97.7134C97.5452 320.828 97.3882 320.839 97.2313 320.873C97.0855 320.896 96.9958 320.974 96.9734 321.098C96.9509 321.221 96.9397 321.333 96.9397 321.423V328.406H94.372V319.784H96.8388H97.6798H100.887C101.997 319.784 102.546 320.525 102.546 322.018V328.406H102.557Z" fill="url(#paint18_linear_338_100)"/>
<path d="M110.675 328.406H103.555V319.784H110.675V320.884H106.078V323.5H110.249V324.6H106.078V327.295H110.675V328.406Z" fill="url(#paint19_linear_338_100)"/>
<path d="M119.276 320.896H116.618V328.417H114.084V320.896H111.438V319.795H119.264V320.896H119.276Z" fill="url(#paint20_linear_338_100)"/>
<path d="M129.961 328.406H127.237L126.16 325.947H122.247L121.182 328.406H119.971L123.828 319.784H126.037L129.961 328.406ZM125.667 324.847L124.198 321.592L122.751 324.847H125.667Z" fill="url(#paint21_linear_338_100)"/>
<path d="M138.135 328.406H131.015V319.784H133.549V327.306H138.146V328.406H138.135Z" fill="url(#paint22_linear_338_100)"/>
<path d="M47.9733 151.435L45.6971 160.056H43.1406L41.6045 154.443H41.582L40.1132 160.056H37.5006L35.1011 151.435H37.7136L39.4965 158.193H39.5189L41.2905 151.435H43.2864L45.0692 158.193H45.0916L46.796 151.435H47.9733Z" fill="url(#paint23_linear_338_100)"/>
<path d="M58.8944 160.056H56.1697L55.0932 157.598H51.18L50.1148 160.056H48.9038L52.761 151.435H54.9699L58.8944 160.056ZM54.6111 156.498L53.1422 153.242L51.6958 156.498H54.6111Z" fill="url(#paint24_linear_338_100)"/>
<path d="M67.45 152.535H64.7926V160.056H62.2585V152.535H59.6123V151.435H67.4388V152.535H67.45Z" fill="url(#paint25_linear_338_100)"/>
<path d="M75.4448 160.056H68.3247V151.435H75.4448V152.535H70.8476V155.15H75.0187V156.251H70.8476V158.945H75.4448V160.056Z" fill="url(#paint26_linear_338_100)"/>
<path d="M85.0876 160.056H82.4414L80.9613 156.251H79.0775V160.056H76.5435V151.435H83.2487C84.37 151.435 84.9194 152.097 84.9194 153.04V154.87C84.9194 155.701 84.4709 156.172 83.5851 156.296L85.0876 160.056ZM82.475 153.085C82.475 152.681 82.3517 152.535 82.0041 152.535H79.0775V155.15H82.0041C82.3405 155.15 82.475 154.982 82.475 154.567V153.085Z" fill="url(#paint27_linear_338_100)"/>
<path d="M189.859 148.763L185.016 132.788L171.571 143.441L178.849 145.552L143.865 262.305L147.845 263.495L182.829 146.719L189.859 148.763Z" fill="white"/>
<path d="M256.127 181.7L269.997 172.439L255.936 162.627L256.015 170.216L134.267 170.418L134.278 174.572L256.048 174.37L256.127 181.7Z" fill="white"/>
<path d="M217.88 148.763L222.724 132.788L236.168 143.441L228.891 145.552L263.875 262.305L259.905 263.495L224.91 146.719L217.88 148.763Z" fill="white"/>
<path d="M183.188 264.09L166.56 262.799L174.05 247.363L177.683 254.02L283.991 194.622L286.009 198.248L179.678 257.669L183.188 264.09Z" fill="white"/>
<path d="M138.965 203.008L132.36 187.684L149.493 187.123L145.3 193.443L247.37 259.892L245.105 263.372L143.012 196.901L138.965 203.008Z" fill="white"/>
</g>
<defs>
<filter id="filter0_d_338_100" x="0" y="0" width="399.004" height="386.999" filterUnits="userSpaceOnUse" color-interpolation-filters="sRGB">
<feFlood flood-opacity="0" result="BackgroundImageFix"/>
<feColorMatrix in="SourceAlpha" type="matrix" values="0 0 0 0 0 0 0 0 0 0 0 0 0 0 0 0 0 0 127 0" result="hardAlpha"/>
<feOffset dy="4"/>
<feGaussianBlur stdDeviation="2"/>
<feComposite in2="hardAlpha" operator="out"/>
<feColorMatrix type="matrix" values="0 0 0 0 0 0 0 0 0 0 0 0 0 0 0 0 0 0 0.25 0"/>
<feBlend mode="normal" in2="BackgroundImageFix" result="effect1_dropShadow_338_100"/>
<feBlend mode="normal" in="SourceGraphic" in2="effect1_dropShadow_338_100" result="shape"/>
</filter>
<linearGradient id="paint0_linear_338_100" x1="88.2012" y1="70.8819" x2="255.711" y2="70.8819" gradientUnits="userSpaceOnUse">
<stop stop-color="#16AA00"/>
<stop offset="0.5563" stop-color="#00F7BD"/>
<stop offset="1" stop-color="#00F7BD"/>
</linearGradient>
<linearGradient id="paint1_linear_338_100" x1="226.287" y1="140.012" x2="395.001" y2="140.012" gradientUnits="userSpaceOnUse">
<stop stop-color="#FF0000"/>
<stop offset="1" stop-color="#FF661E"/>
</linearGradient>
<linearGradient id="paint2_linear_338_100" x1="232.373" y1="284.506" x2="346.822" y2="284.506" gradientUnits="userSpaceOnUse">
<stop stop-color="#551E00"/>
<stop offset="1" stop-color="#D46400"/>
</linearGradient>
<linearGradient id="paint3_linear_338_100" x1="131.377" y1="236.485" x2="172.466" y2="392.436" gradientUnits="userSpaceOnUse">
<stop stop-color="#E3FBFB"/>
<stop offset="0.5541" stop-color="#808080"/>
<stop offset="1" stop-color="#F0F0F0"/>
</linearGradient>
<linearGradient id="paint4_linear_338_100" x1="3.99674" y1="191.337" x2="117.482" y2="191.337" gradientUnits="userSpaceOnUse">
<stop stop-color="#0DC3FD"/>
<stop offset="1" stop-color="#0056E9"/>
</linearGradient>
<linearGradient id="paint5_linear_338_100" x1="175.878" y1="59.4615" x2="188.753" y2="59.4615" gradientUnits="userSpaceOnUse">
<stop stop-color="#00C297"/>
<stop offset="0.5563" stop-color="#00F7BD"/>
<stop offset="1" stop-color="#00F7BD"/>
</linearGradient>
<linearGradient id="paint6_linear_338_100" x1="189.86" y1="59.4615" x2="198.395" y2="59.4615" gradientUnits="userSpaceOnUse">
<stop stop-color="#00C297"/>
<stop offset="0.5563" stop-color="#00F7BD"/>
<stop offset="1" stop-color="#00F7BD"/>
</linearGradient>
<linearGradient id="paint7_linear_338_100" x1="199.604" y1="59.4615" x2="208.139" y2="59.4615" gradientUnits="userSpaceOnUse">
<stop stop-color="#00C297"/>
<stop offset="0.5563" stop-color="#00F7BD"/>
<stop offset="1" stop-color="#00F7BD"/>
</linearGradient>
<linearGradient id="paint8_linear_338_100" x1="209.348" y1="59.4615" x2="217.883" y2="59.4615" gradientUnits="userSpaceOnUse">
<stop stop-color="#00C297"/>
<stop offset="0.5563" stop-color="#00F7BD"/>
<stop offset="1" stop-color="#00F7BD"/>
</linearGradient>
<linearGradient id="paint9_linear_338_100" x1="326.797" y1="155.743" x2="333.919" y2="155.743" gradientUnits="userSpaceOnUse">
<stop stop-color="#FF0066"/>
<stop offset="1" stop-color="#FF661E"/>
</linearGradient>
<linearGradient id="paint10_linear_338_100" x1="335.029" y1="155.743" x2="337.558" y2="155.743" gradientUnits="userSpaceOnUse">
<stop stop-color="#FF0066"/>
<stop offset="1" stop-color="#FF661E"/>
</linearGradient>
<linearGradient id="paint11_linear_338_100" x1="338.767" y1="155.743" x2="347.301" y2="155.743" gradientUnits="userSpaceOnUse">
<stop stop-color="#FF0066"/>
<stop offset="1" stop-color="#FF661E"/>
</linearGradient>
<linearGradient id="paint12_linear_338_100" x1="348.346" y1="155.743" x2="355.468" y2="155.743" gradientUnits="userSpaceOnUse">
<stop stop-color="#FF0066"/>
<stop offset="1" stop-color="#FF661E"/>
</linearGradient>
<linearGradient id="paint13_linear_338_100" x1="268.182" y1="321.261" x2="275.304" y2="321.261" gradientUnits="userSpaceOnUse">
<stop stop-color="#551E00"/>
<stop offset="1" stop-color="#D46400"/>
</linearGradient>
<linearGradient id="paint14_linear_338_100" x1="276.243" y1="321.261" x2="286.223" y2="321.261" gradientUnits="userSpaceOnUse">
<stop stop-color="#551E00"/>
<stop offset="1" stop-color="#D46400"/>
</linearGradient>
<linearGradient id="paint15_linear_338_100" x1="287.274" y1="321.261" x2="295.808" y2="321.261" gradientUnits="userSpaceOnUse">
<stop stop-color="#551E00"/>
<stop offset="1" stop-color="#D46400"/>
</linearGradient>
<linearGradient id="paint16_linear_338_100" x1="296.518" y1="321.261" x2="304.349" y2="321.261" gradientUnits="userSpaceOnUse">
<stop stop-color="#551E00"/>
<stop offset="1" stop-color="#D46400"/>
</linearGradient>
<linearGradient id="paint17_linear_338_100" x1="305.223" y1="321.261" x2="313.685" y2="321.261" gradientUnits="userSpaceOnUse">
<stop stop-color="#551E00"/>
<stop offset="1" stop-color="#D46400"/>
</linearGradient>
<linearGradient id="paint18_linear_338_100" x1="89.2367" y1="324.098" x2="145.37" y2="324.098" gradientUnits="userSpaceOnUse">
<stop stop-color="#808080"/>
<stop offset="0.5541" stop-color="#808080"/>
<stop offset="1" stop-color="#F0F0F0"/>
</linearGradient>
<linearGradient id="paint19_linear_338_100" x1="89.2366" y1="324.098" x2="145.37" y2="324.098" gradientUnits="userSpaceOnUse">
<stop stop-color="#808080"/>
<stop offset="0.5541" stop-color="#808080"/>
<stop offset="1" stop-color="#F0F0F0"/>
</linearGradient>
<linearGradient id="paint20_linear_338_100" x1="89.2368" y1="324.098" x2="145.371" y2="324.098" gradientUnits="userSpaceOnUse">
<stop stop-color="#808080"/>
<stop offset="0.5541" stop-color="#808080"/>
<stop offset="1" stop-color="#F0F0F0"/>
</linearGradient>
<linearGradient id="paint21_linear_338_100" x1="89.2367" y1="324.098" x2="145.37" y2="324.098" gradientUnits="userSpaceOnUse">
<stop stop-color="#808080"/>
<stop offset="0.5541" stop-color="#808080"/>
<stop offset="1" stop-color="#F0F0F0"/>
</linearGradient>
<linearGradient id="paint22_linear_338_100" x1="89.2365" y1="324.098" x2="145.37" y2="324.098" gradientUnits="userSpaceOnUse">
<stop stop-color="#808080"/>
<stop offset="0.5541" stop-color="#808080"/>
<stop offset="1" stop-color="#F0F0F0"/>
</linearGradient>
<linearGradient id="paint23_linear_338_100" x1="35.1011" y1="155.743" x2="47.9716" y2="155.743" gradientUnits="userSpaceOnUse">
<stop stop-color="#04006A"/>
<stop offset="1" stop-color="#0056E9"/>
</linearGradient>
<linearGradient id="paint24_linear_338_100" x1="48.9176" y1="155.743" x2="58.8974" y2="155.743" gradientUnits="userSpaceOnUse">
<stop stop-color="#04006A"/>
<stop offset="1" stop-color="#0056E9"/>
</linearGradient>
<linearGradient id="paint25_linear_338_100" x1="59.6138" y1="155.743" x2="67.4452" y2="155.743" gradientUnits="userSpaceOnUse">
<stop stop-color="#04006A"/>
<stop offset="1" stop-color="#0056E9"/>
</linearGradient>
<linearGradient id="paint26_linear_338_100" x1="68.3191" y1="155.743" x2="75.441" y2="155.743" gradientUnits="userSpaceOnUse">
<stop stop-color="#04006A"/>
<stop offset="1" stop-color="#0056E9"/>
</linearGradient>
<linearGradient id="paint27_linear_338_100" x1="76.5511" y1="155.743" x2="85.0855" y2="155.743" gradientUnits="userSpaceOnUse">
<stop stop-color="#04006A"/>
<stop offset="1" stop-color="#0056E9"/>
</linearGradient>
</defs>
</svg>
