<svg width="66" height="26" viewBox="0 0 66 26" fill="none" xmlns="http://www.w3.org/2000/svg">
<path d="M0.772 26V0.872H12.652C13.828 0.872 14.884 1.076 15.82 1.484C16.756 1.868 17.548 2.408 18.196 3.104C18.868 3.8 19.384 4.652 19.744 5.66C20.104 6.644 20.284 7.724 20.284 8.9C20.284 10.1 20.104 11.192 19.744 12.176C19.384 13.16 18.868 14 18.196 14.696C17.548 15.392 16.756 15.944 15.82 16.352C14.884 16.736 13.828 16.928 12.652 16.928H6.244V26H0.772ZM6.244 12.176H12.004C12.82 12.176 13.456 11.972 13.912 11.564C14.392 11.132 14.632 10.508 14.632 9.692V8.108C14.632 7.292 14.392 6.68 13.912 6.272C13.456 5.84 12.82 5.624 12.004 5.624H6.244V12.176ZM41.461 26H23.677V21.068L31.417 14.444C32.113 13.844 32.701 13.304 33.181 12.824C33.661 12.32 34.045 11.84 34.333 11.384C34.645 10.904 34.861 10.436 34.981 9.98C35.125 9.524 35.197 9.032 35.197 8.504V8C35.197 7.52 35.101 7.1 34.909 6.74C34.717 6.38 34.465 6.08 34.153 5.84C33.841 5.6 33.481 5.42 33.073 5.3C32.689 5.18 32.293 5.12 31.885 5.12C31.285 5.12 30.757 5.216 30.301 5.408C29.869 5.6 29.485 5.864 29.149 6.2C28.837 6.512 28.573 6.884 28.357 7.316C28.141 7.724 27.973 8.168 27.853 8.648L23.137 6.848C23.425 5.984 23.821 5.168 24.325 4.4C24.829 3.608 25.453 2.924 26.197 2.348C26.965 1.748 27.865 1.28 28.897 0.943999C29.929 0.607999 31.093 0.439999 32.389 0.439999C33.757 0.439999 34.969 0.631999 36.025 1.016C37.081 1.4 37.969 1.928 38.689 2.6C39.433 3.272 39.997 4.076 40.381 5.012C40.765 5.924 40.957 6.92 40.957 8C40.957 9.08 40.777 10.064 40.417 10.952C40.057 11.84 39.565 12.68 38.941 13.472C38.341 14.24 37.633 14.972 36.817 15.668C36.001 16.364 35.149 17.072 34.261 17.792L29.581 21.464H41.461V26ZM45.9829 26V0.872H57.8629C59.0389 0.872 60.0949 1.076 61.0309 1.484C61.9669 1.868 62.7589 2.408 63.4069 3.104C64.0789 3.8 64.5949 4.652 64.9549 5.66C65.3149 6.644 65.4949 7.724 65.4949 8.9C65.4949 10.1 65.3149 11.192 64.9549 12.176C64.5949 13.16 64.0789 14 63.4069 14.696C62.7589 15.392 61.9669 15.944 61.0309 16.352C60.0949 16.736 59.0389 16.928 57.8629 16.928H51.4549V26H45.9829ZM51.4549 12.176H57.2149C58.0309 12.176 58.6669 11.972 59.1229 11.564C59.6029 11.132 59.8429 10.508 59.8429 9.692V8.108C59.8429 7.292 59.6029 6.68 59.1229 6.272C58.6669 5.84 58.0309 5.624 57.2149 5.624H51.4549V12.176Z" fill="url(#paint0_linear_226_128)"/>
<defs>
<linearGradient id="paint0_linear_226_128" x1="32.5" y1="-4" x2="32.5" y2="30" gradientUnits="userSpaceOnUse">
<stop stop-color="#FF1D52"/>
<stop offset="1" stop-color="#FF9D00"/>
</linearGradient>
</defs>
</svg>
